<svg width="32" height="32" viewBox="0 0 32 32" fill="none" xmlns="http://www.w3.org/2000/svg">
<path d="M21.197 20.075C21.9532 19.6688 22.8188 19.4375 23.7407 19.4375H23.7438C23.8376 19.4375 23.8813 19.325 23.8126 19.2625C22.8539 18.4021 21.7587 17.7072 20.572 17.2062C20.5595 17.2 20.547 17.1969 20.5345 17.1906C22.4751 15.7812 23.7376 13.4906 23.7376 10.9062C23.7376 6.625 20.2751 3.15625 16.0032 3.15625C11.7313 3.15625 8.27195 6.625 8.27195 10.9062C8.27195 13.4906 9.53445 15.7812 11.4782 17.1906C11.4657 17.1969 11.4532 17.2 11.4407 17.2062C10.0438 17.7969 8.7907 18.6438 7.71258 19.725C6.64068 20.795 5.78731 22.0633 5.20008 23.4594C4.62231 24.8264 4.31049 26.2911 4.28133 27.775C4.28049 27.8084 4.28634 27.8415 4.29853 27.8726C4.31072 27.9036 4.32901 27.932 4.3523 27.9558C4.3756 27.9797 4.40345 27.9987 4.43419 28.0116C4.46494 28.0246 4.49797 28.0313 4.53133 28.0312H6.4032C6.53758 28.0312 6.65008 27.9219 6.6532 27.7875C6.7157 25.375 7.68133 23.1156 9.3907 21.4031C11.1563 19.6313 13.5063 18.6562 16.0063 18.6562C17.7782 18.6562 19.4782 19.1469 20.9438 20.0656C20.9815 20.0893 21.0247 20.1026 21.0691 20.1043C21.1136 20.1059 21.1577 20.0958 21.197 20.075V20.075ZM16.0063 16.2812C14.5751 16.2812 13.2282 15.7219 12.2126 14.7063C11.7129 14.2078 11.3167 13.6155 11.047 12.9633C10.7772 12.3111 10.6391 11.612 10.6407 10.9062C10.6407 9.47187 11.2001 8.12187 12.2126 7.10625C13.2251 6.09062 14.572 5.53125 16.0063 5.53125C17.4407 5.53125 18.7845 6.09062 19.8001 7.10625C20.2998 7.60466 20.6959 8.19701 20.9657 8.84919C21.2355 9.50137 21.3735 10.2005 21.372 10.9062C21.372 12.3406 20.8126 13.6906 19.8001 14.7063C18.7845 15.7219 17.4376 16.2812 16.0063 16.2812ZM27.5001 23.7188H24.8751V21.0938C24.8751 20.9562 24.7626 20.8438 24.6251 20.8438H22.8751C22.7376 20.8438 22.6251 20.9562 22.6251 21.0938V23.7188H20.0001C19.8626 23.7188 19.7501 23.8312 19.7501 23.9688V25.7188C19.7501 25.8563 19.8626 25.9688 20.0001 25.9688H22.6251V28.5938C22.6251 28.7313 22.7376 28.8438 22.8751 28.8438H24.6251C24.7626 28.8438 24.8751 28.7313 24.8751 28.5938V25.9688H27.5001C27.6376 25.9688 27.7501 25.8563 27.7501 25.7188V23.9688C27.7501 23.8312 27.6376 23.7188 27.5001 23.7188Z" fill="black"/>
</svg>
