<svg width="32" height="32" viewBox="0 0 32 32" fill="none" xmlns="http://www.w3.org/2000/svg">
<path d="M16.8002 13.5998C17.4754 13.5998 18.1442 13.6062 18.829 13.8526C19.4898 14.0894 20.221 14.5742 20.9346 15.6446C20.9929 15.732 21.0679 15.8071 21.1552 15.8655C21.2425 15.924 21.3405 15.9646 21.4435 15.9852C21.5465 16.0058 21.6526 16.0059 21.7557 15.9855C21.8588 15.965 21.9568 15.9245 22.0442 15.8662C22.1316 15.8079 22.2067 15.7329 22.2651 15.6456C22.3236 15.5583 22.3642 15.4603 22.3848 15.3573C22.4054 15.2543 22.4055 15.1482 22.385 15.0451C22.3646 14.942 22.3241 14.844 22.2658 14.7566C21.3778 13.4254 20.3778 12.7086 19.3698 12.347C18.4082 11.9998 17.4882 11.9998 16.8322 11.9998H16.8002C16.588 11.9998 16.3845 12.0841 16.2345 12.2341C16.0845 12.3841 16.0002 12.5876 16.0002 12.7998C16.0002 13.012 16.0845 13.2155 16.2345 13.3655C16.3845 13.5155 16.588 13.5998 16.8002 13.5998ZM12.8002 7.9998V9.2638C8.1746 10.6398 4.8002 14.9262 4.8002 19.9998C4.8002 20.212 4.88448 20.4155 5.03451 20.5655C5.18454 20.7155 5.38802 20.7998 5.6002 20.7998H26.4002C26.6124 20.7998 26.8159 20.7155 26.9659 20.5655C27.1159 20.4155 27.2002 20.212 27.2002 19.9998C27.2 17.5876 26.4214 15.2398 24.9801 13.3055C23.5387 11.3712 21.5117 9.95375 19.2002 9.2638V7.9998C19.2002 7.15111 18.8631 6.33718 18.2629 5.73706C17.6628 5.13695 16.8489 4.7998 16.0002 4.7998C15.1515 4.7998 14.3376 5.13695 13.7375 5.73706C13.1373 6.33718 12.8002 7.15111 12.8002 7.9998V7.9998ZM16.0002 6.3998C16.4245 6.3998 16.8315 6.56838 17.1316 6.86843C17.4316 7.16849 17.6002 7.57546 17.6002 7.9998V8.91181C16.5389 8.75995 15.4615 8.75995 14.4002 8.91181V7.9998C14.4002 7.57546 14.5688 7.16849 14.8688 6.86843C15.1689 6.56838 15.5758 6.3998 16.0002 6.3998V6.3998ZM16.0002 10.3998C18.408 10.3995 20.7281 11.3039 22.5003 12.9339C24.2725 14.5639 25.3675 16.8003 25.5682 19.1998H6.4322C6.63285 16.8003 7.72785 14.5639 9.50009 12.9339C11.2723 11.3039 13.5924 10.3995 16.0002 10.3998V10.3998ZM5.6002 22.3998C4.96368 22.3998 4.35323 22.6527 3.90314 23.1027C3.45305 23.5528 3.2002 24.1633 3.2002 24.7998C3.2002 25.4363 3.45305 26.0468 3.90314 26.4969C4.35323 26.9469 4.96368 27.1998 5.6002 27.1998H26.4002C27.0367 27.1998 27.6472 26.9469 28.0973 26.4969C28.5473 26.0468 28.8002 25.4363 28.8002 24.7998C28.8002 24.1633 28.5473 23.5528 28.0973 23.1027C27.6472 22.6527 27.0367 22.3998 26.4002 22.3998H5.6002ZM4.8002 24.7998C4.8002 24.5876 4.88448 24.3841 5.03451 24.2341C5.18454 24.0841 5.38802 23.9998 5.6002 23.9998H26.4002C26.6124 23.9998 26.8159 24.0841 26.9659 24.2341C27.1159 24.3841 27.2002 24.5876 27.2002 24.7998C27.2002 25.012 27.1159 25.2155 26.9659 25.3655C26.8159 25.5155 26.6124 25.5998 26.4002 25.5998H5.6002C5.38802 25.5998 5.18454 25.5155 5.03451 25.3655C4.88448 25.2155 4.8002 25.012 4.8002 24.7998Z" fill="black"/>
</svg>
