<svg width="32" height="32" viewBox="0 0 32 32" fill="none" xmlns="http://www.w3.org/2000/svg">
<path d="M10.652 4.666C10.4775 4.8446 10.3799 5.08435 10.3799 5.334C10.3799 5.58366 10.4775 5.82341 10.652 6.002L20.398 16L10.652 25.996C10.4775 26.1746 10.3799 26.4143 10.3799 26.664C10.3799 26.9137 10.4775 27.1534 10.652 27.332C10.7368 27.4191 10.8382 27.4883 10.9501 27.5356C11.0621 27.5828 11.1824 27.6072 11.304 27.6072C11.4255 27.6072 11.5459 27.5828 11.6578 27.5356C11.7698 27.4883 11.8712 27.4191 11.956 27.332L22.32 16.698C22.502 16.5113 22.6039 16.2608 22.6039 16C22.6039 15.7392 22.502 15.4887 22.32 15.302L11.956 4.668C11.8712 4.58092 11.7698 4.5117 11.6578 4.46444C11.5459 4.41717 11.4255 4.39282 11.304 4.39282C11.1824 4.39282 11.0621 4.41717 10.9501 4.46444C10.8382 4.5117 10.7368 4.58092 10.652 4.668V4.666Z" fill="white"/>
</svg>
