<svg width="36" height="36" viewBox="0 0 36 36" fill="none" xmlns="http://www.w3.org/2000/svg">
<path d="M14.5723 18C16.2988 18 17.5723 16.7265 17.5723 15C17.5723 13.2735 16.2988 12 14.5723 12C12.8458 12 11.5723 13.2735 11.5723 15C11.5723 16.7265 12.8443 18 14.5723 18Z" fill="black"/>
<path d="M30 6H6C4.3455 6 3 7.2615 3 8.8125V27.1875C3 28.7385 4.3455 30 6 30H30C31.6545 30 33 28.7385 33 27.1875V8.8125C33 7.2615 31.6545 6 30 6ZM30 27L6 26.9835V9L30 9.0165V27Z" fill="black"/>
<path d="M21 13.5H27V16.5H21V13.5ZM22.5 19.5H27V22.5H22.5V19.5ZM20.145 23.304C20.145 21.243 17.631 19.125 14.5725 19.125C11.514 19.125 9 21.243 9 23.304V24H20.145V23.304Z" fill="black"/>
</svg>
