<svg width="16" height="16" viewBox="0 0 16 16" fill="none" xmlns="http://www.w3.org/2000/svg">
<g clip-path="url(#clip0_61_17)">
<path d="M7.03611 1.09694C7.20556 0.728191 7.07778 0.275066 6.75278 0.0844409C6.42778 -0.106184 6.02222 0.0375659 5.85278 0.403191L3.26667 6.00007H0.888889C0.397222 6.00007 0 6.44694 0 7.00007C0 7.55319 0.397222 8.00007 0.888889 8.00007L2.33056 14.4844C2.52778 15.3751 3.23889 16.0001 4.05556 16.0001H11.9444C12.7611 16.0001 13.4722 15.3751 13.6694 14.4844L15.1111 8.00007C15.6028 8.00007 16 7.55319 16 7.00007C16 6.44694 15.6028 6.00007 15.1111 6.00007H12.7333L10.1472 0.403191C9.97778 0.0375659 9.575 -0.106184 9.24722 0.0844409C8.91944 0.275066 8.79445 0.728191 8.96389 1.09694L11.2306 6.00007H4.76944L7.03611 1.09694ZM5.33333 9.50007V12.5001C5.33333 12.7751 5.13333 13.0001 4.88889 13.0001C4.64444 13.0001 4.44444 12.7751 4.44444 12.5001V9.50007C4.44444 9.22507 4.64444 9.00007 4.88889 9.00007C5.13333 9.00007 5.33333 9.22507 5.33333 9.50007ZM8 9.00007C8.24444 9.00007 8.44444 9.22507 8.44444 9.50007V12.5001C8.44444 12.7751 8.24444 13.0001 8 13.0001C7.75556 13.0001 7.55556 12.7751 7.55556 12.5001V9.50007C7.55556 9.22507 7.75556 9.00007 8 9.00007ZM11.5556 9.50007V12.5001C11.5556 12.7751 11.3556 13.0001 11.1111 13.0001C10.8667 13.0001 10.6667 12.7751 10.6667 12.5001V9.50007C10.6667 9.22507 10.8667 9.00007 11.1111 9.00007C11.3556 9.00007 11.5556 9.22507 11.5556 9.50007Z" fill="white"/>
</g>
<defs>
<clipPath id="clip0_61_17">
<rect width="16" height="16" fill="white"/>
</clipPath>
</defs>
</svg>
