<svg width="36" height="36" viewBox="0 0 36 36" fill="none" xmlns="http://www.w3.org/2000/svg">
<path d="M15.8313 9.36004L10.7568 3.50255C10.1718 2.82755 9.09935 2.83055 8.41985 3.51155L4.24685 7.69204C3.00485 8.93554 2.64935 10.782 3.36785 12.2625C7.66028 21.15 14.8279 28.3277 23.7093 32.6325C25.1883 33.351 27.0333 32.9955 28.2753 31.752L32.4874 27.5325C33.1699 26.85 33.1713 25.7715 32.4903 25.1865L26.6103 20.139C25.9953 19.611 25.0398 19.68 24.4233 20.298L22.3773 22.347C22.2726 22.4568 22.1347 22.5292 21.9849 22.553C21.835 22.5769 21.6815 22.5509 21.5478 22.479C18.2035 20.5532 15.4293 17.7754 13.5078 14.4285C13.4359 14.2947 13.4098 14.1409 13.4337 13.9908C13.4575 13.8407 13.5299 13.7025 13.6398 13.5975L15.6798 11.556C16.2978 10.935 16.3653 9.97504 15.8313 9.35854V9.36004Z" stroke="white" stroke-width="2" stroke-linecap="round" stroke-linejoin="round"/>
</svg>
