
<svg width="48" height="48" viewBox="0 0 48 48" fill="none" xmlns="http://www.w3.org/2000/svg">
<g clip-path="url(#clip0_30_4)">
<path d="M24.1334 14.6667C18.9334 14.6667 14.8 18.8001 14.8 24.0001C14.8 29.2001 18.9334 33.3334 24.1334 33.3334C29.3334 33.3334 33.4667 29.2001 33.4667 24.0001C33.4667 18.8001 29.3334 14.6667 24.1334 14.6667ZM24.1334 30.6667C20.4 30.6667 17.4667 27.7334 17.4667 24.0001C17.4667 20.2667 20.4 17.3334 24.1334 17.3334C27.8667 17.3334 30.8 20.2667 30.8 24.0001C30.8 27.7334 27.8667 30.6667 24.1334 30.6667Z" fill="white"/>
<path d="M43.7333 19.6001L40 18.4001L39.2 16.4001L41.0666 12.9334C41.4666 12.1334 41.3333 11.0667 40.6666 10.4001L37.4666 7.20008C36.8 6.53341 35.7333 6.40008 34.9333 6.80008L31.4666 8.66675L29.4666 7.86675L28.2666 4.13341C28 3.33341 27.2 2.66675 26.2666 2.66675H21.7333C20.8 2.66675 20 3.33341 19.8666 4.26675L18.6666 8.00008C17.8666 8.13341 17.2 8.40008 16.5333 8.80008L13.0666 6.93341C12.2666 6.53341 11.2 6.66675 10.5333 7.33342L7.33329 10.5334C6.66663 11.2001 6.53329 12.2667 6.93329 13.0667L8.66663 16.4001C8.39996 17.0667 8.13329 17.8667 7.86663 18.5334L4.13329 19.7334C3.33329 20.0001 2.66663 20.8001 2.66663 21.7334V26.2668C2.66663 27.2001 3.33329 28.0001 4.26663 28.2668L7.99996 29.4667L8.79996 31.4667L6.93329 34.9334C6.53329 35.7334 6.66663 36.8001 7.33329 37.4668L10.5333 40.6667C11.2 41.3334 12.2666 41.4667 13.0666 41.0667L16.5333 39.2001L18.5333 40.0001L19.7333 43.8668C20 44.6668 20.8 45.3334 21.7333 45.3334H26.2666C27.2 45.3334 28 44.6668 28.2666 43.8668L29.4666 40.0001L31.4666 39.2001L34.9333 41.0667C35.7333 41.4667 36.8 41.3334 37.4666 40.6667L40.6666 37.4668C41.3333 36.8001 41.4666 35.7334 41.0666 34.9334L39.2 31.4667L40 29.4667L43.8666 28.2668C44.6666 28.0001 45.3333 27.2001 45.3333 26.2668V21.7334C45.3333 20.8001 44.6666 19.8667 43.7333 19.6001ZM42.6666 25.8667L37.8666 27.3334L37.7333 28.0001L36.5333 30.8001L36.1333 31.4667L38.5333 35.8667L35.8666 38.5334L31.4666 36.1334L30.8 36.5334C29.8666 37.0667 28.9333 37.4667 28 37.7334L27.3333 37.8667L25.8666 42.6667H22.1333L20.6666 37.8667L20 37.7334L17.2 36.5334L16.5333 36.1334L12.1333 38.5334L9.46663 35.8667L11.8666 31.4667L11.4666 30.8001C10.9333 29.8667 10.5333 28.9334 10.2666 28.0001L10.1333 27.3334L5.33329 25.8667V22.1334L9.86663 20.8001L10.1333 20.1334C10.4 19.0667 10.8 18.1334 11.3333 17.2001L11.7333 16.5334L9.46663 12.1334L12.1333 9.46675L16.4 11.8667L17.0666 11.4667C18 10.9334 18.9333 10.5334 20 10.2667L20.6666 10.0001L22.1333 5.33341H25.8666L27.3333 10.0001L28 10.2667C28.9333 10.5334 29.8666 10.9334 30.8 11.4667L31.4666 11.8667L35.8666 9.46675L38.5333 12.1334L36.1333 16.5334L36.5333 17.2001C37.0666 18.1334 37.4666 19.0667 37.7333 20.0001L37.8666 20.6667L42.6666 22.1334V25.8667Z" fill="white"/>
</g>
<defs>
<clipPath id="clip0_30_4">
<rect width="48" height="48" fill="white"/>
</clipPath>
</defs>
</svg>
