<svg width="32" height="32" viewBox="0 0 32 32" fill="none" xmlns="http://www.w3.org/2000/svg">
<path d="M9.33332 25.3333C10.8061 25.3333 12 24.1394 12 22.6667C12 21.1939 10.8061 20 9.33332 20C7.86056 20 6.66666 21.1939 6.66666 22.6667C6.66666 24.1394 7.86056 25.3333 9.33332 25.3333Z" stroke="black" stroke-width="2" stroke-linecap="round" stroke-linejoin="round"/>
<path d="M22.6667 25.3333C24.1394 25.3333 25.3333 24.1394 25.3333 22.6667C25.3333 21.1939 24.1394 20 22.6667 20C21.1939 20 20 21.1939 20 22.6667C20 24.1394 21.1939 25.3333 22.6667 25.3333Z" stroke="black" stroke-width="2" stroke-linecap="round" stroke-linejoin="round"/>
<path d="M6.66667 22.6666H4V7.99996C4 7.64634 4.14048 7.3072 4.39052 7.05715C4.64057 6.8071 4.97971 6.66663 5.33333 6.66663H17.3333V14.6666H10.6667L13.3333 17.3333M13.3333 12L10.6667 14.6666M12 22.6666H20M17.3333 7.99996H24L28 14.6666V22.6666H25.3333" stroke="black" stroke-width="2" stroke-linecap="round" stroke-linejoin="round"/>
</svg>
