<svg width="32" height="32" viewBox="0 0 32 32" fill="none" xmlns="http://www.w3.org/2000/svg">
<path d="M3.99984 26.667V11.6003C3.62206 11.3559 3.30562 11.0448 3.0505 10.667C2.7945 10.2892 2.6665 9.84477 2.6665 9.33366V5.33366C2.6665 4.60033 2.92784 3.97233 3.4505 3.44966C3.97228 2.92788 4.59984 2.66699 5.33317 2.66699H26.6665C27.3998 2.66699 28.0278 2.92788 28.5505 3.44966C29.0723 3.97233 29.3332 4.60033 29.3332 5.33366V9.33366C29.3332 9.84477 29.2052 10.2892 28.9492 10.667C28.6941 11.0448 28.3776 11.3559 27.9998 11.6003V26.667C27.9998 27.4003 27.7389 28.0283 27.2172 28.551C26.6945 29.0728 26.0665 29.3337 25.3332 29.3337H6.6665C5.93317 29.3337 5.30517 29.0728 4.7825 28.551C4.26073 28.0283 3.99984 27.4003 3.99984 26.667ZM6.6665 12.0003V26.667H25.3332V12.0003H6.6665ZM26.6665 9.33366V5.33366H5.33317V9.33366H26.6665ZM11.9998 18.667H19.9998V16.0003H11.9998V18.667ZM6.6665 26.667V12.0003V26.667Z" fill="black"/>
</svg>
