<svg width="32" height="32" viewBox="0 0 32 32" fill="none" xmlns="http://www.w3.org/2000/svg">
<path d="M4.29229 5.70804C4.19931 5.61507 4.12556 5.50469 4.07524 5.38321C4.02492 5.26173 3.99902 5.13153 3.99902 5.00004C3.99902 4.86855 4.02492 4.73835 4.07524 4.61688C4.12556 4.4954 4.19931 4.38502 4.29229 4.29204C4.38526 4.19907 4.49564 4.12531 4.61712 4.075C4.7386 4.02468 4.8688 3.99878 5.00029 3.99878C5.13177 3.99878 5.26197 4.02468 5.38345 4.075C5.50493 4.12531 5.61531 4.19907 5.70829 4.29204L16.0003 14.586L26.2923 4.29204C26.3853 4.19907 26.4956 4.12531 26.6171 4.075C26.7386 4.02468 26.8688 3.99878 27.0003 3.99878C27.1318 3.99878 27.262 4.02468 27.3835 4.075C27.5049 4.12531 27.6153 4.19907 27.7083 4.29204C27.8013 4.38502 27.875 4.4954 27.9253 4.61688C27.9757 4.73835 28.0015 4.86855 28.0015 5.00004C28.0015 5.13153 27.9757 5.26173 27.9253 5.38321C27.875 5.50469 27.8013 5.61507 27.7083 5.70804L17.4143 16L27.7083 26.292C27.8013 26.385 27.875 26.4954 27.9253 26.6169C27.9757 26.7384 28.0015 26.8686 28.0015 27C28.0015 27.1315 27.9757 27.2617 27.9253 27.3832C27.875 27.5047 27.8013 27.6151 27.7083 27.708C27.6153 27.801 27.5049 27.8748 27.3835 27.9251C27.262 27.9754 27.1318 28.0013 27.0003 28.0013C26.8688 28.0013 26.7386 27.9754 26.6171 27.9251C26.4956 27.8748 26.3853 27.801 26.2923 27.708L16.0003 17.414L5.70829 27.708C5.61531 27.801 5.50493 27.8748 5.38345 27.9251C5.26197 27.9754 5.13177 28.0013 5.00029 28.0013C4.8688 28.0013 4.7386 27.9754 4.61712 27.9251C4.49564 27.8748 4.38526 27.801 4.29229 27.708C4.19931 27.6151 4.12556 27.5047 4.07524 27.3832C4.02492 27.2617 3.99902 27.1315 3.99902 27C3.99902 26.8686 4.02492 26.7384 4.07524 26.6169C4.12556 26.4954 4.19931 26.385 4.29229 26.292L14.5863 16L4.29229 5.70804Z" fill="#FF776F"/>
</svg>
