<svg width="32" height="32" viewBox="0 0 32 32" fill="none" xmlns="http://www.w3.org/2000/svg">
<path fill-rule="evenodd" clip-rule="evenodd" d="M12.0002 17.3333H25.3335C25.6871 17.3333 26.0263 17.4738 26.2763 17.7239C26.5264 17.9739 26.6668 18.313 26.6668 18.6667C26.6668 19.0203 26.5264 19.3594 26.2763 19.6095C26.0263 19.8595 25.6871 20 25.3335 20H12.0002C11.6465 20 11.3074 19.8595 11.0574 19.6095C10.8073 19.3594 10.6668 19.0203 10.6668 18.6667C10.6668 18.313 10.8073 17.9739 11.0574 17.7239C11.3074 17.4738 11.6465 17.3333 12.0002 17.3333V17.3333ZM12.0002 22.6667H25.3335C25.6871 22.6667 26.0263 22.8071 26.2763 23.0572C26.5264 23.3072 26.6668 23.6464 26.6668 24C26.6668 24.3536 26.5264 24.6928 26.2763 24.9428C26.0263 25.1929 25.6871 25.3333 25.3335 25.3333H12.0002C11.6465 25.3333 11.3074 25.1929 11.0574 24.9428C10.8073 24.6928 10.6668 24.3536 10.6668 24C10.6668 23.6464 10.8073 23.3072 11.0574 23.0572C11.3074 22.8071 11.6465 22.6667 12.0002 22.6667V22.6667ZM20.0002 12H25.3335C25.6871 12 26.0263 12.1405 26.2763 12.3905C26.5264 12.6406 26.6668 12.9797 26.6668 13.3333C26.6668 13.687 26.5264 14.0261 26.2763 14.2761C26.0263 14.5262 25.6871 14.6667 25.3335 14.6667H20.0002C19.6465 14.6667 19.3074 14.5262 19.0574 14.2761C18.8073 14.0261 18.6668 13.687 18.6668 13.3333C18.6668 12.9797 18.8073 12.6406 19.0574 12.3905C19.3074 12.1405 19.6465 12 20.0002 12V12ZM10.3242 14.552L5.3335 9.56267L7.21883 7.676L10.3242 10.7813L17.1042 4L18.9908 5.88533L10.3242 14.552V14.552Z" fill="black"/>
</svg>
