<svg width="32" height="32" viewBox="0 0 32 32" fill="none" xmlns="http://www.w3.org/2000/svg">
<path d="M8.0002 9.6002C8.0002 9.17585 8.16877 8.76888 8.46882 8.46882C8.76888 8.16877 9.17585 8.0002 9.6002 8.0002H12.8002C13.2245 8.0002 13.6315 8.16877 13.9316 8.46882C14.2316 8.76888 14.4002 9.17585 14.4002 9.6002V12.8002C14.4002 13.2245 14.2316 13.6315 13.9316 13.9316C13.6315 14.2316 13.2245 14.4002 12.8002 14.4002H9.6002C9.17585 14.4002 8.76888 14.2316 8.46882 13.9316C8.16877 13.6315 8.0002 13.2245 8.0002 12.8002V9.6002ZM12.8002 9.6002H9.6002V12.8002H12.8002V9.6002ZM8.0002 19.2002C8.0002 18.7758 8.16877 18.3689 8.46882 18.0688C8.76888 17.7688 9.17585 17.6002 9.6002 17.6002H12.8002C13.2245 17.6002 13.6315 17.7688 13.9316 18.0688C14.2316 18.3689 14.4002 18.7758 14.4002 19.2002V22.4002C14.4002 22.8245 14.2316 23.2315 13.9316 23.5316C13.6315 23.8316 13.2245 24.0002 12.8002 24.0002H9.6002C9.17585 24.0002 8.76888 23.8316 8.46882 23.5316C8.16877 23.2315 8.0002 22.8245 8.0002 22.4002V19.2002ZM12.8002 19.2002H9.6002V22.4002H12.8002V19.2002ZM19.2002 8.0002C18.7758 8.0002 18.3689 8.16877 18.0688 8.46882C17.7688 8.76888 17.6002 9.17585 17.6002 9.6002V12.8002C17.6002 13.2245 17.7688 13.6315 18.0688 13.9316C18.3689 14.2316 18.7758 14.4002 19.2002 14.4002H22.4002C22.8245 14.4002 23.2315 14.2316 23.5316 13.9316C23.8316 13.6315 24.0002 13.2245 24.0002 12.8002V9.6002C24.0002 9.17585 23.8316 8.76888 23.5316 8.46882C23.2315 8.16877 22.8245 8.0002 22.4002 8.0002H19.2002ZM19.2002 9.6002H22.4002V12.8002H19.2002V9.6002ZM17.6002 19.2002C17.6002 18.7758 17.7688 18.3689 18.0688 18.0688C18.3689 17.7688 18.7758 17.6002 19.2002 17.6002H22.4002C22.8245 17.6002 23.2315 17.7688 23.5316 18.0688C23.8316 18.3689 24.0002 18.7758 24.0002 19.2002V22.4002C24.0002 22.8245 23.8316 23.2315 23.5316 23.5316C23.2315 23.8316 22.8245 24.0002 22.4002 24.0002H19.2002C18.7758 24.0002 18.3689 23.8316 18.0688 23.5316C17.7688 23.2315 17.6002 22.8245 17.6002 22.4002V19.2002ZM22.4002 19.2002H19.2002V22.4002H22.4002V19.2002ZM8.0002 3.2002C6.72716 3.2002 5.50626 3.70591 4.60608 4.60608C3.70591 5.50626 3.2002 6.72716 3.2002 8.0002V24.0002C3.2002 25.2732 3.70591 26.4941 4.60608 27.3943C5.50626 28.2945 6.72716 28.8002 8.0002 28.8002H24.0002C25.2732 28.8002 26.4941 28.2945 27.3943 27.3943C28.2945 26.4941 28.8002 25.2732 28.8002 24.0002V8.0002C28.8002 6.72716 28.2945 5.50626 27.3943 4.60608C26.4941 3.70591 25.2732 3.2002 24.0002 3.2002H8.0002ZM4.8002 8.0002C4.8002 7.1515 5.13734 6.33757 5.73745 5.73745C6.33757 5.13734 7.1515 4.8002 8.0002 4.8002H24.0002C24.8489 4.8002 25.6628 5.13734 26.2629 5.73745C26.8631 6.33757 27.2002 7.1515 27.2002 8.0002V24.0002C27.2002 24.8489 26.8631 25.6628 26.2629 26.2629C25.6628 26.8631 24.8489 27.2002 24.0002 27.2002H8.0002C7.1515 27.2002 6.33757 26.8631 5.73745 26.2629C5.13734 25.6628 4.8002 24.8489 4.8002 24.0002V8.0002Z" fill="black"/>
</svg>
