<svg width="32" height="32" viewBox="0 0 32 32" fill="none" xmlns="http://www.w3.org/2000/svg">
<path d="M13.3331 18.1332L21.1997 10.2666C21.4442 10.0221 21.7553 9.8999 22.1331 9.8999C22.5109 9.8999 22.822 10.0221 23.0664 10.2666C23.3108 10.511 23.4331 10.8221 23.4331 11.1999C23.4331 11.5777 23.3108 11.8888 23.0664 12.1332L14.2664 20.9332C13.9997 21.1999 13.6886 21.3332 13.3331 21.3332C12.9775 21.3332 12.6664 21.1999 12.3997 20.9332L8.93307 17.4666C8.68863 17.2221 8.56641 16.911 8.56641 16.5332C8.56641 16.1555 8.68863 15.8443 8.93307 15.5999C9.17752 15.3555 9.48863 15.2332 9.86641 15.2332C10.2442 15.2332 10.5553 15.3555 10.7997 15.5999L13.3331 18.1332Z" fill="white"/>
</svg>
