<svg width="32" height="32" viewBox="0 0 32 32" fill="none" xmlns="http://www.w3.org/2000/svg">
<path d="M28.0003 6.66675H4.00033C3.6467 6.66675 3.30756 6.80722 3.05752 7.05727C2.80747 7.30732 2.66699 7.64646 2.66699 8.00008V13.3334H3.85766C5.18566 13.3334 6.41766 14.2414 6.63099 15.5521C6.69598 15.9348 6.67667 16.3271 6.57441 16.7016C6.47215 17.0761 6.2894 17.4237 6.03892 17.7203C5.78843 18.0169 5.47625 18.2552 5.12415 18.4187C4.77205 18.5821 4.38852 18.6668 4.00033 18.6667H2.66699V24.0001C2.66699 24.3537 2.80747 24.6928 3.05752 24.9429C3.30756 25.1929 3.6467 25.3334 4.00033 25.3334H28.0003C28.3539 25.3334 28.6931 25.1929 28.9431 24.9429C29.1932 24.6928 29.3337 24.3537 29.3337 24.0001V18.6667H28.0003C27.6121 18.6668 27.2286 18.5821 26.8765 18.4187C26.5244 18.2552 26.2122 18.0169 25.9617 17.7203C25.7112 17.4237 25.5285 17.0761 25.4262 16.7016C25.324 16.3271 25.3047 15.9348 25.3697 15.5521C25.583 14.2414 26.815 13.3334 28.143 13.3334H29.3337V8.00008C29.3337 7.64646 29.1932 7.30732 28.9431 7.05727C28.6931 6.80722 28.3539 6.66675 28.0003 6.66675ZM14.667 22.6667H12.0003V20.0001H14.667V22.6667ZM14.667 17.3334H12.0003V14.6667H14.667V17.3334ZM14.667 12.0001H12.0003V9.33341H14.667V12.0001Z" fill="white"/>
</svg>
