<svg width="32" height="32" viewBox="0 0 32 32" fill="none" xmlns="http://www.w3.org/2000/svg">
<path d="M6.66667 14.667H17.3333V17.3337H6.66667V21.3337L0 16.0003L6.66667 10.667V14.667ZM5.33333 24.0003H8.944C10.4836 25.3581 12.3822 26.2428 14.4122 26.5482C16.4421 26.8537 18.517 26.5669 20.388 25.7223C22.259 24.8777 23.8465 23.5112 24.9601 21.7867C26.0737 20.0623 26.666 18.0531 26.666 16.0003C26.666 13.9476 26.0737 11.9384 24.9601 10.2139C23.8465 8.48943 22.259 7.12291 20.388 6.27833C18.517 5.43374 16.4421 5.14696 14.4122 5.45241C12.3822 5.75785 10.4836 6.64255 8.944 8.00033H5.33333C6.57421 6.34323 8.18444 4.99834 10.0361 4.07252C11.8877 3.14669 13.9298 2.66544 16 2.667C23.364 2.667 29.3333 8.63633 29.3333 16.0003C29.3333 23.3643 23.364 29.3337 16 29.3337C13.9298 29.3352 11.8877 28.854 10.0361 27.9281C8.18444 27.0023 6.57421 25.6574 5.33333 24.0003Z" fill="black"/>
</svg>
