<svg width="48" height="48" viewBox="0 0 48 48" fill="none" xmlns="http://www.w3.org/2000/svg">
<path d="M13 31H35M20 25V31M35 28V34M13 28V34M13 24.125C11.8672 23.8989 10.7913 23.448 9.83577 22.7989C8.88028 22.1497 8.06466 21.3156 7.43714 20.3458C6.80961 19.376 6.38293 18.2902 6.18232 17.1526C5.98171 16.015 6.01124 14.8488 6.26918 13.7228C6.52711 12.5969 7.00821 11.5341 7.68401 10.5973C8.35982 9.66047 9.21661 8.86869 10.2037 8.26876C11.1908 7.66883 12.2882 7.27293 13.431 7.10448C14.5738 6.93602 15.7387 6.99843 16.857 7.288C17.665 6.26225 18.6953 5.43334 19.8703 4.86378C21.0453 4.29421 22.3342 3.99886 23.64 4C24.9833 3.99883 26.3084 4.31139 27.5096 4.91278C28.7108 5.51418 29.755 6.38778 30.559 7.464C31.6793 7.08395 32.8657 6.93802 34.0447 7.03525C35.2238 7.13248 36.3702 7.4708 37.4132 8.02925C38.4561 8.58769 39.3732 9.35437 40.1077 10.2818C40.8422 11.2091 41.3784 12.2775 41.6831 13.4206C41.9878 14.5637 42.0545 15.7572 41.8791 16.9271C41.7037 18.0971 41.2899 19.2185 40.6633 20.222C40.0368 21.2255 39.2108 22.0896 38.2366 22.7608C37.2625 23.432 36.1608 23.896 35 24.124V40C35 40.5304 34.7893 41.0391 34.4142 41.4142C34.0391 41.7893 33.5304 42 33 42H15C14.4696 42 13.9608 41.7893 13.5858 41.4142C13.2107 41.0391 13 40.5304 13 40V24.125Z" stroke="white" stroke-width="4" stroke-linecap="round" stroke-linejoin="round"/>
</svg>
