<svg width="32" height="32" viewBox="0 0 32 32" fill="none" xmlns="http://www.w3.org/2000/svg">
<path d="M22.4827 5.98263L26 9.49996M24 18.6666V25C24 25.7956 23.6839 26.5587 23.1213 27.1213C22.5587 27.6839 21.7956 28 21 28H7C6.20435 28 5.44129 27.6839 4.87868 27.1213C4.31607 26.5587 4 25.7956 4 25V11C4 10.2043 4.31607 9.44125 4.87868 8.87864C5.44129 8.31603 6.20435 7.99996 7 7.99996H13.3333M22.4827 5.98263L24.732 3.73196C25.2009 3.26306 25.8369 2.99963 26.5 2.99963C27.1631 2.99963 27.7991 3.26306 28.268 3.73196C28.7369 4.20087 29.0003 4.83683 29.0003 5.49996C29.0003 6.16309 28.7369 6.79906 28.268 7.26796L14.1093 21.4266C13.4044 22.1311 12.5352 22.6489 11.58 22.9333L8 24L9.06667 20.42C9.35104 19.4648 9.86885 18.5955 10.5733 17.8906L22.4827 5.98263V5.98263Z" stroke="black" stroke-width="1.5" stroke-linecap="round" stroke-linejoin="round"/>
</svg>
