<svg width="32" height="32" viewBox="0 0 32 32" fill="none" xmlns="http://www.w3.org/2000/svg">
<path d="M16.0003 29.3334C13.3632 29.3334 10.7854 28.5514 8.59273 27.0863C6.40007 25.6213 4.69111 23.5389 3.68194 21.1025C2.67277 18.6662 2.40872 15.9853 2.92319 13.3989C3.43766 10.8125 4.70754 8.4367 6.57224 6.572C8.43694 4.7073 10.8127 3.43742 13.3991 2.92295C15.9855 2.40848 18.6664 2.67253 21.1028 3.68169C23.5391 4.69086 25.6215 6.39983 27.0866 8.59248C28.5517 10.7851 29.3337 13.363 29.3337 16.0001C29.3337 19.5363 27.9289 22.9277 25.4284 25.4282C22.9279 27.9287 19.5366 29.3334 16.0003 29.3334V29.3334ZM16.0003 5.33342C13.8907 5.33342 11.8284 5.95901 10.0742 7.13108C8.32012 8.30315 6.95295 9.96905 6.14562 11.9181C5.33828 13.8672 5.12705 16.0119 5.53862 18.0811C5.9502 20.1502 6.9661 22.0508 8.45786 23.5426C9.94962 25.0343 11.8502 26.0502 13.9194 26.4618C15.9885 26.8734 18.1332 26.6621 20.0823 25.8548C22.0314 25.0475 23.6973 23.6803 24.8693 21.9262C26.0414 20.172 26.667 18.1098 26.667 16.0001C26.667 13.1711 25.5432 10.458 23.5428 8.45762C21.5424 6.45723 18.8293 5.33342 16.0003 5.33342V5.33342Z" fill="#FF776F"/>
</svg>
