<svg width="32" height="32" viewBox="0 0 32 32" fill="none" xmlns="http://www.w3.org/2000/svg">
<path d="M16.0003 2.66675C13.3632 2.66675 10.7854 3.44873 8.59273 4.91382C6.40007 6.37891 4.69111 8.46129 3.68194 10.8976C2.67277 13.334 2.40872 16.0149 2.92319 18.6013C3.43766 21.1877 4.70754 23.5635 6.57224 25.4282C8.43694 27.2929 10.8127 28.5627 13.3991 29.0772C15.9855 29.5917 18.6664 29.3276 21.1028 28.3185C23.5391 27.3093 25.6215 25.6003 27.0866 23.4077C28.5517 21.215 29.3337 18.6372 29.3337 16.0001C29.3337 14.2491 28.9888 12.5153 28.3187 10.8976C27.6487 9.27996 26.6665 7.81011 25.4284 6.57199C24.1903 5.33388 22.7205 4.35175 21.1028 3.68169C19.4851 3.01162 17.7513 2.66675 16.0003 2.66675V2.66675ZM16.0003 26.6667C13.8907 26.6667 11.8284 26.0412 10.0742 24.8691C8.32012 23.697 6.95295 22.0311 6.14562 20.082C5.33828 18.133 5.12705 15.9882 5.53862 13.9191C5.9502 11.85 6.9661 9.94937 8.45786 8.45761C9.94962 6.96585 11.8502 5.94995 13.9194 5.53837C15.9885 5.1268 18.1332 5.33803 20.0823 6.14537C22.0314 6.9527 23.6973 8.31987 24.8693 10.074C26.0414 11.8281 26.667 13.8904 26.667 16.0001C26.667 18.8291 25.5432 21.5422 23.5428 23.5426C21.5424 25.5429 18.8293 26.6667 16.0003 26.6667V26.6667Z" fill="#FF776F"/>
<path d="M15.9997 9.33325C14.6811 9.33325 13.3922 9.72424 12.2959 10.4568C11.1995 11.1893 10.3451 12.2305 9.84048 13.4487C9.3359 14.6669 9.20387 16.0073 9.46111 17.3005C9.71834 18.5937 10.3533 19.7816 11.2856 20.714C12.218 21.6463 13.4059 22.2813 14.6991 22.5385C15.9923 22.7957 17.3327 22.6637 18.5509 22.1591C19.7691 21.6545 20.8103 20.8 21.5428 19.7037C22.2754 18.6074 22.6663 17.3185 22.6663 15.9999C22.6663 14.2318 21.964 12.5361 20.7137 11.2859C19.4635 10.0356 17.7678 9.33325 15.9997 9.33325V9.33325Z" fill="#FF776F"/>
</svg>
