<svg width="32" height="32" viewBox="0 0 32 32" fill="none" xmlns="http://www.w3.org/2000/svg">
<path d="M24 24.6667C25.1067 24.6667 26 23.7734 26 22.6667C26 21.56 25.1067 20.6667 24 20.6667C22.8933 20.6667 22 21.56 22 22.6667C22 23.7734 22.8933 24.6667 24 24.6667ZM26 12.6667H22.6667V16H28.6133L26 12.6667ZM8 24.6667C9.10666 24.6667 10 23.7734 10 22.6667C10 21.56 9.10666 20.6667 8 20.6667C6.89333 20.6667 6 21.56 6 22.6667C6 23.7734 6.89333 24.6667 8 24.6667ZM26.6667 10.6667L30.6667 16V22.6667H28C28 24.88 26.2133 26.6667 24 26.6667C21.7867 26.6667 20 24.88 20 22.6667H12C12 24.88 10.2133 26.6667 8 26.6667C5.78666 26.6667 3.99999 24.88 3.99999 22.6667H1.33333V8.00004C1.33333 6.52004 2.51999 5.33337 3.99999 5.33337H22.6667V10.6667H26.6667ZM3.99999 8.00004V20H5.01333C5.74666 19.1867 6.81333 18.6667 8 18.6667C9.18666 18.6667 10.2533 19.1867 10.9867 20H20V8.00004H3.99999ZM13.3333 9.33337L18 14L13.3333 18.6667V15.3334H6.66666V12.6667H13.3333V9.33337Z" fill="black"/>
</svg>
