<svg width="48" height="48" viewBox="0 0 48 48" fill="none" xmlns="http://www.w3.org/2000/svg">
<path d="M11.0769 0C11.0769 0 9.23077 12.9231 9.23077 14.7692C9.23077 16.6154 13.3846 20.3077 13.3846 20.3077L12.9231 44.9428C12.9231 46.9809 14.5772 48 16.6154 48C18.6535 48 20.3077 46.9809 20.3077 44.9428L19.8462 20.3077C19.8462 20.3077 24 16.5378 24 14.7692C24 13.0006 22.1539 0 22.1539 0H20.3077V12C20.3077 12.2448 20.2104 12.4796 20.0373 12.6527C19.8642 12.8258 19.6294 12.9231 19.3846 12.9231C19.1398 12.9231 18.905 12.8258 18.7319 12.6527C18.5588 12.4796 18.4615 12.2448 18.4615 12C18.4615 11.8283 17.8265 0 17.8265 0H15.4043C15.4043 0 14.7692 11.8283 14.7692 12C14.7692 12.2448 14.672 12.4796 14.4989 12.6527C14.3258 12.8258 14.091 12.9231 13.8462 12.9231C13.6013 12.9231 13.3666 12.8258 13.1934 12.6527C13.0203 12.4796 12.9231 12.2448 12.9231 12V0H11.0769ZM30.8659 0.116308C29.7785 0.376615 29.5385 1.54154 29.5385 2.82462V44.9409C29.5385 46.9791 31.1926 47.9982 33.2308 47.9982C35.2689 47.9982 36.8659 46.9772 36.8659 44.9409C36.8659 35.5495 35.0197 30.5428 35.0197 25.8443C35.0197 23.7249 38.7692 20.9963 38.7692 11.1323C38.7692 5.09908 33.4228 0.114462 31.3846 0.114462C31.1926 0.114462 31.0209 0.0775385 30.8659 0.114462V0.116308Z" fill="white"/>
</svg>
