<svg width="24" height="24" viewBox="0 0 24 24" fill="none" xmlns="http://www.w3.org/2000/svg">
<path d="M1 4.2C1 3.35131 1.33714 2.53737 1.93726 1.93726C2.53737 1.33714 3.35131 1 4.2 1H15.4C16.2487 1 17.0626 1.33714 17.6627 1.93726C18.2629 2.53737 18.6 3.35131 18.6 4.2V15.4H23.4V18.6C23.4 19.873 22.8943 21.0939 21.9941 21.9941C21.0939 22.8943 19.873 23.4 18.6 23.4H5.8C4.52696 23.4 3.30606 22.8943 2.40589 21.9941C1.50571 21.0939 1 19.873 1 18.6V4.2ZM18.6 17V21.8C19.4487 21.8 20.2626 21.4629 20.8627 20.8627C21.4629 20.2626 21.8 19.4487 21.8 18.6V17H18.6ZM17 21.8V4.2C17 3.77565 16.8314 3.36869 16.5314 3.06863C16.2313 2.76857 15.8243 2.6 15.4 2.6H4.2C3.77565 2.6 3.36869 2.76857 3.06863 3.06863C2.76857 3.36869 2.6 3.77565 2.6 4.2V18.6C2.6 19.4487 2.93714 20.2626 3.53726 20.8627C4.13737 21.4629 4.95131 21.8 5.8 21.8H17ZM5.8 6.6C5.8 6.38783 5.88429 6.18434 6.03431 6.03431C6.18434 5.88429 6.38783 5.8 6.6 5.8H13C13.2122 5.8 13.4157 5.88429 13.5657 6.03431C13.7157 6.18434 13.8 6.38783 13.8 6.6C13.8 6.81217 13.7157 7.01566 13.5657 7.16569C13.4157 7.31571 13.2122 7.4 13 7.4H6.6C6.38783 7.4 6.18434 7.31571 6.03431 7.16569C5.88429 7.01566 5.8 6.81217 5.8 6.6ZM5.8 11.4C5.8 11.1878 5.88429 10.9843 6.03431 10.8343C6.18434 10.6843 6.38783 10.6 6.6 10.6H13C13.2122 10.6 13.4157 10.6843 13.5657 10.8343C13.7157 10.9843 13.8 11.1878 13.8 11.4C13.8 11.6122 13.7157 11.8157 13.5657 11.9657C13.4157 12.1157 13.2122 12.2 13 12.2H6.6C6.38783 12.2 6.18434 12.1157 6.03431 11.9657C5.88429 11.8157 5.8 11.6122 5.8 11.4ZM5.8 16.2C5.8 15.9878 5.88429 15.7843 6.03431 15.6343C6.18434 15.4843 6.38783 15.4 6.6 15.4H9.8C10.0122 15.4 10.2157 15.4843 10.3657 15.6343C10.5157 15.7843 10.6 15.9878 10.6 16.2C10.6 16.4122 10.5157 16.6157 10.3657 16.7657C10.2157 16.9157 10.0122 17 9.8 17H6.6C6.38783 17 6.18434 16.9157 6.03431 16.7657C5.88429 16.6157 5.8 16.4122 5.8 16.2Z" fill="black"/>
</svg>
