<svg width="32" height="32" viewBox="0 0 32 32" fill="none" xmlns="http://www.w3.org/2000/svg">
<path d="M2.66699 5.33333C2.66699 4.97971 2.80747 4.64057 3.05752 4.39052C3.30756 4.14048 3.6467 4 4.00033 4H28.0003C28.3539 4 28.6931 4.14048 28.9431 4.39052C29.1932 4.64057 29.3337 4.97971 29.3337 5.33333V12.6667C28.4496 12.6667 27.6018 13.0179 26.9766 13.643C26.3515 14.2681 26.0003 15.1159 26.0003 16C26.0003 16.8841 26.3515 17.7319 26.9766 18.357C27.6018 18.9821 28.4496 19.3333 29.3337 19.3333V26.6667C29.3337 27.0203 29.1932 27.3594 28.9431 27.6095C28.6931 27.8595 28.3539 28 28.0003 28H4.00033C3.6467 28 3.30756 27.8595 3.05752 27.6095C2.80747 27.3594 2.66699 27.0203 2.66699 26.6667V5.33333ZM10.7803 25.3333C10.9178 24.9427 11.1731 24.6043 11.511 24.3649C11.8489 24.1256 12.2529 23.997 12.667 23.997C13.0811 23.997 13.485 24.1256 13.823 24.3649C14.1609 24.6043 14.4162 24.9427 14.5537 25.3333H26.667V21.376C25.6654 20.8796 24.8224 20.1133 24.233 19.1634C23.6436 18.2135 23.3313 17.1179 23.3313 16C23.3313 14.8821 23.6436 13.7865 24.233 12.8366C24.8224 11.8867 25.6654 11.1204 26.667 10.624V6.66667H14.5537C14.4162 7.05733 14.1609 7.39569 13.823 7.63506C13.485 7.87442 13.0811 8.00297 12.667 8.00297C12.2529 8.00297 11.8489 7.87442 11.511 7.63506C11.1731 7.39569 10.9178 7.05733 10.7803 6.66667H5.33366V25.3333H10.7803ZM12.667 14.6667C12.1366 14.6667 11.6279 14.456 11.2528 14.0809C10.8777 13.7058 10.667 13.1971 10.667 12.6667C10.667 12.1362 10.8777 11.6275 11.2528 11.2525C11.6279 10.8774 12.1366 10.6667 12.667 10.6667C13.1974 10.6667 13.7061 10.8774 14.0812 11.2525C14.4563 11.6275 14.667 12.1362 14.667 12.6667C14.667 13.1971 14.4563 13.7058 14.0812 14.0809C13.7061 14.456 13.1974 14.6667 12.667 14.6667ZM12.667 21.3333C12.1366 21.3333 11.6279 21.1226 11.2528 20.7475C10.8777 20.3725 10.667 19.8638 10.667 19.3333C10.667 18.8029 10.8777 18.2942 11.2528 17.9191C11.6279 17.544 12.1366 17.3333 12.667 17.3333C13.1974 17.3333 13.7061 17.544 14.0812 17.9191C14.4563 18.2942 14.667 18.8029 14.667 19.3333C14.667 19.8638 14.4563 20.3725 14.0812 20.7475C13.7061 21.1226 13.1974 21.3333 12.667 21.3333Z" fill="black"/>
</svg>
